<svg width="445" height="420" viewBox="0 0 445 420" fill="none" xmlns="http://www.w3.org/2000/svg">
<g clip-path="url(#clip0_4_353)">
<path d="M40.7072 419.167C40.6896 419.369 40.7523 419.569 40.8816 419.725C41.011 419.881 41.1965 419.98 41.3981 420H385.843C386.037 419.964 386.213 419.861 386.339 419.709C386.466 419.556 386.535 419.365 386.535 419.167C386.535 418.969 386.466 418.777 386.339 418.625C386.213 418.472 386.037 418.369 385.843 418.333H41.3981C41.1965 418.353 41.011 418.452 40.8816 418.608C40.7523 418.764 40.6896 418.965 40.7072 419.167Z" fill="#CCCCCC"/>
<path d="M225.796 336.929C225.233 340.339 223.479 343.438 220.846 345.674C218.214 347.909 214.874 349.137 211.422 349.137C207.97 349.137 204.63 347.909 201.998 345.674C199.365 343.438 197.612 340.339 197.049 336.929H160.276V416.715H262.568V336.929H225.796Z" fill="#D6D6E3"/>
<path d="M172.171 416.418H162.061V418.204H172.171V416.418Z" fill="#B6B3C5"/>
<path d="M261.676 416.715H251.566V418.502H261.676V416.715Z" fill="#B6B3C5"/>
<path d="M262.866 410.394H160.574V413.172H262.866V410.394Z" fill="#090814"/>
<path d="M417.143 339.013H5.70253C4.19056 339.011 2.74102 338.409 1.67195 337.339C0.602877 336.268 0.00158509 334.817 0 333.303L0 98.2179C0.00158509 96.7041 0.602877 95.2528 1.67195 94.1824C2.74102 93.1119 4.19056 92.5098 5.70253 92.5081H417.141C418.653 92.5097 420.102 93.1117 421.171 94.182C422.241 95.2523 422.842 96.7036 422.844 98.2173V333.303C422.842 334.817 422.24 336.268 421.171 337.338C420.102 338.409 418.653 339.011 417.141 339.012L417.143 339.013Z" fill="#090814"/>
<path d="M412.734 102.035H10.1093V329.486H412.734V102.035Z" fill="white"/>
<path d="M247.055 302.169H180.185C178.543 302.169 176.968 301.516 175.807 300.354C174.646 299.191 173.994 297.615 173.994 295.971C173.994 294.327 174.646 292.751 175.807 291.588C176.968 290.426 178.543 289.773 180.185 289.773H247.055C248.697 289.773 250.272 290.426 251.433 291.588C252.594 292.751 253.246 294.327 253.246 295.971C253.246 297.615 252.594 299.191 251.433 300.354C250.272 301.516 248.697 302.169 247.055 302.169Z" fill="#B486C6"/>
<path d="M237.298 236.59H185.341C181.986 236.59 179.257 234.895 179.257 232.812C179.257 230.729 181.986 229.034 185.341 229.034H237.298C240.653 229.034 243.382 230.729 243.382 232.812C243.382 234.896 240.653 236.59 237.298 236.59Z" fill="#D1D1D2"/>
<path d="M214.221 198.979L213.965 198.454C213.887 198.294 206.242 182.293 210.505 166.517C214.767 150.741 229.428 140.781 229.575 140.68L230.06 140.353L230.315 140.878C230.393 141.037 238.038 157.038 233.775 172.814C229.512 188.59 214.852 198.551 214.705 198.652L214.221 198.979ZM229.65 141.876C227.083 143.745 215.209 153.006 211.487 166.782C207.762 180.569 213.355 194.551 214.631 197.459C217.198 195.59 229.071 186.329 232.794 172.553C236.519 158.766 230.925 144.784 229.65 141.876V141.876Z" fill="#3F3D56"/>
<path d="M194.508 172.687C198.771 188.462 213.37 198.232 213.37 198.232C213.37 198.232 221.059 182.424 216.797 166.65C212.535 150.877 197.935 141.105 197.935 141.105C197.935 141.105 190.246 156.912 194.508 172.687Z" fill="#B486C6"/>
<path d="M214.451 198.758L213.869 198.727C213.691 198.717 196.011 197.626 184.311 186.226C172.612 174.825 171.049 157.158 171.032 156.98L170.985 156.399L171.567 156.431C171.745 156.44 189.425 157.531 201.125 168.932C212.824 180.332 214.387 198 214.401 198.177L214.451 198.758ZM172.114 157.495C172.495 160.649 174.807 175.54 185.021 185.495C195.235 195.449 210.165 197.361 213.324 197.66C212.943 194.506 210.632 179.618 200.417 169.66C190.197 159.699 175.272 157.794 172.114 157.496V157.495Z" fill="#3F3D56"/>
<path d="M227.022 169.297C215.326 180.696 213.897 198.219 213.897 198.219C213.897 198.219 231.432 197.26 243.127 185.861C254.823 174.462 256.255 156.939 256.255 156.939C256.255 156.939 238.717 157.897 227.022 169.297Z" fill="#3F3D56"/>
<path d="M213.653 138.503C217.866 138.503 221.281 135.084 221.281 130.866C221.281 126.648 217.866 123.229 213.653 123.229C209.441 123.229 206.026 126.648 206.026 130.866C206.026 135.084 209.441 138.503 213.653 138.503Z" fill="#B486C6"/>
<path d="M382.785 196.064C378.178 200.554 377.613 207.456 377.613 207.456C377.613 207.456 384.52 207.079 389.126 202.589C393.733 198.099 394.298 191.196 394.298 191.196C394.298 191.196 387.389 191.574 382.785 196.064Z" fill="#3F3D56"/>
<path d="M357.918 330.806L357.213 330.072C357.322 329.963 385.225 292.233 389.415 272.071C393.286 253.45 391.971 225.515 363.73 185.198C342.075 154.276 333.309 127.261 337.68 104.902C341.522 85.26 430.427 84.3339 430.559 84.2495L431.11 85.1052C430.982 85.1881 342.42 85.9109 338.672 105.13C334.371 127.201 343.082 153.942 364.565 184.613C377.128 202.549 385.493 220.114 389.424 236.82C392.574 250.207 392.902 260.351 390.399 272.343C386.13 292.79 358.032 330.697 357.918 330.806Z" fill="#3F3D56"/>
<path d="M378.417 0.32652C378.417 0.32652 364.854 -3.49891 360.842 15.0537C356.831 33.6064 359.889 42.9792 359.889 42.9792L390.169 39.441C390.169 39.441 398.763 5.96764 378.417 0.32652Z" fill="#090814"/>
<path d="M358.126 80.6813C358.126 80.6813 338.231 82.6649 341.775 90.7071C345.318 98.7494 345.318 99.4585 345.318 99.4585L362.801 130.68L368.471 124.766C368.471 124.766 362.09 110.809 362.09 106.317C362.09 101.826 355.475 94.0202 355.475 94.0202L367.051 93.0739L358.126 80.6813Z" fill="#FFB9B9"/>
<path d="M412.645 90.2334L419.26 104.661C419.26 104.661 424.221 109.628 429.655 129.496C435.088 149.364 436.27 148.654 436.27 148.654L428.003 150.31C428.003 150.31 418.788 128.788 415.716 127.131C412.645 125.474 408.865 110.338 408.865 110.338L397.998 96.6197L401.305 89.2877L412.645 90.2334Z" fill="#FFB9B9"/>
<path d="M404.613 73.6791L414.772 92.6008C414.772 92.6008 402.014 86.6876 400.126 99.6962L388.55 90.7082C388.55 90.7082 372.486 95.9116 362.798 94.0196C362.798 94.0196 365.633 85.0317 355.474 81.0111L378.39 78.1728L377.445 73.206L379.807 68.4757L404.613 73.6791Z" fill="#090814"/>
<path d="M364.213 126.422C364.213 126.422 357.834 125.476 359.488 131.153L362.797 142.503C362.797 142.503 358.545 154.092 365.16 151.49C371.774 148.889 376.027 132.805 376.027 132.805C376.027 132.805 378.862 120.506 376.027 120.506C373.192 120.506 364.212 118.614 365.16 120.506C366.107 122.398 364.213 126.422 364.213 126.422Z" fill="#090814"/>
<path d="M435.561 145.343C435.561 145.343 427.292 143.214 425.403 146.526C423.513 149.837 423.987 160.717 423.987 160.954C423.987 161.19 426.822 163.555 427.767 163.555C428.712 163.555 434.618 174.199 442.651 170.415C450.683 166.631 435.561 145.343 435.561 145.343Z" fill="#090814"/>
<path d="M376.028 29.2108C381.116 29.2108 385.242 25.0808 385.242 19.9862C385.242 14.8917 381.116 10.7617 376.028 10.7617C370.939 10.7617 366.814 14.8917 366.814 19.9862C366.814 25.0808 370.939 29.2108 376.028 29.2108Z" fill="#FFB9B9"/>
<path d="M383.588 21.8788C383.588 21.8788 385.478 31.813 387.132 33.2319C388.786 34.6507 374.61 36.7799 374.61 36.7799C374.61 36.7799 376.736 29.9205 374.137 26.373C371.538 22.8256 383.588 21.8788 383.588 21.8788Z" fill="#FFB9B9"/>
<path d="M408.394 78.1712C406.785 78.1712 402.688 77.504 398.096 76.6449C394.121 75.9025 389.773 75.02 386.343 74.3059C382.669 73.5396 380.045 72.9656 380.045 72.9656C380.045 72.9656 379.1 78.8787 376.028 78.169C373.382 77.5585 365.475 49.9067 363.337 42.2645C363.181 41.7065 363.211 41.1127 363.423 40.5735C363.635 40.0343 364.018 39.5792 364.512 39.2775L375.372 32.6383L378.155 33.7028C378.155 33.7028 382.856 30.0649 385.585 29.9919C388.314 29.9188 393.039 29.2091 393.039 29.2091C393.039 29.2091 398.472 29.6823 399.417 33.7028C400.362 37.7234 400.833 62.7953 404.378 67.289C407.924 71.7827 412.882 78.1712 408.394 78.1712Z" fill="#D6D6E3"/>
<path d="M375.319 91.4163C375.319 91.4163 375.319 100.641 381.461 99.2214C387.604 97.802 381.934 89.2877 381.934 89.2877L375.319 91.4163Z" fill="#FFB9B9"/>
<path d="M392.329 92.3636C392.329 92.3636 390.203 103.244 385.714 101.588C381.225 99.9327 385.714 90.235 385.714 90.235L392.329 92.3636Z" fill="#FFB9B9"/>
<path opacity="0.15" d="M402.251 66.5815C402.251 66.5815 399.938 72.1065 398.095 76.6455C394.121 75.9031 389.772 75.0205 386.342 74.3065C386.589 73.6532 386.935 73.042 387.368 72.4946C389.021 70.6026 388.075 70.1295 388.075 70.1295C386.66 67.2912 387.839 63.5066 387.839 63.5066C385.004 55.9381 389.255 46.477 389.255 46.477L402.251 66.5815Z" fill="black"/>
<path d="M389.967 46.4764C389.967 46.4764 385.714 55.9375 388.551 63.5061C388.551 63.5061 387.37 67.2906 388.788 70.1289C388.788 70.1289 389.733 70.602 388.08 72.494C386.427 74.3861 385.008 81.0089 386.19 82.4278C387.371 83.8466 384.536 86.4489 385.245 87.8677C385.953 89.2866 384.063 91.1791 384.063 91.1791C384.063 91.1791 391.151 92.5964 392.332 94.7271C392.332 94.7271 393.747 93.0717 393.04 91.1791C392.332 89.2866 392.803 88.5774 393.512 87.3946C394.221 86.2118 396.347 83.6101 396.583 82.4278C396.82 81.2455 402.962 66.5809 402.962 66.5809L400.079 39.8574L389.967 46.4764Z" fill="#D6D6E3"/>
<path d="M365.397 39.8542L364.955 39.9343C364.34 40.046 363.784 40.3716 363.385 40.8537C362.985 41.3359 362.769 41.9436 362.774 42.5698C362.791 44.9447 362.924 49.1588 363.507 54.9913C364.452 64.4524 367.759 78.6437 368.468 80.0653C369.593 82.5765 370.855 85.0242 372.248 87.3973C374.374 90.9453 374.846 89.7625 374.374 91.4184C374.23 91.8744 374.22 92.3621 374.346 92.8235C374.471 93.2848 374.727 93.7002 375.082 94.0201C375.082 94.0201 379.334 89.2899 383.586 91.8916C383.89 91.2228 384.051 90.4978 384.059 89.763C384.059 88.5802 384.767 87.3979 383.586 86.6882C382.406 85.9784 384.294 82.9036 382.405 81.2482C380.516 79.5927 380.279 79.831 380.515 78.1733C380.625 77.0476 380.463 75.9117 380.043 74.8619L365.397 39.8542Z" fill="#D6D6E3"/>
<path d="M379.472 8.13655C379.472 8.13655 375.651 18.2752 366.29 22.4811L364.762 13.4915L379.472 8.13655Z" fill="#090814"/>
<path d="M430.631 74.7649C429.049 80.6219 423.628 84.2495 423.628 84.2495C423.628 84.2495 420.774 78.3805 422.356 72.5235C423.938 66.6665 429.359 63.0389 429.359 63.0389C429.359 63.0389 432.214 68.9079 430.631 74.7649Z" fill="#B486C6"/>
<path d="M241.463 248.582H185.777C182.184 248.582 179.256 246.887 179.256 244.804C179.256 242.721 182.182 241.026 185.777 241.026H241.463C245.056 241.026 247.984 242.721 247.984 244.804C247.984 246.888 245.056 248.582 241.463 248.582Z" fill="#D1D1D2"/>
</g>
<defs>
<clipPath id="clip0_4_353">
<rect width="445" height="420" fill="white"/>
</clipPath>
</defs>
</svg>
